<?xml version="1.0" encoding="UTF-8" standalone="no"?>
<!DOCTYPE svg PUBLIC "-//W3C//DTD SVG 1.1//EN" "http://www.w3.org/Graphics/SVG/1.1/DTD/svg11.dtd">
<svg width="100%" height="100%" viewBox="0 0 180 180" version="1.1" xmlns="http://www.w3.org/2000/svg" xmlns:xlink="http://www.w3.org/1999/xlink" xml:space="preserve" xmlns:serif="http://www.serif.com/" style="fill-rule:evenodd;clip-rule:evenodd;stroke-linejoin:round;stroke-miterlimit:2;">
    <g>
        <g transform="matrix(1.2357,1.10896e-16,-1.10896e-16,-0.330163,26.973,189.535)">
            <path d="M51.005,67.717L99.561,164.829L2.45,164.829L51.005,67.717Z" style="fill:rgb(132,70,211);"/>
        </g>
        <g transform="matrix(-0.656798,1.04669,0.279663,0.175488,44.205,-12.5664)">
            <path d="M51.005,67.717L99.561,164.829L2.45,164.829L51.005,67.717Z" style="fill:rgb(132,70,211);"/>
        </g>
        <g transform="matrix(0.656798,1.04669,-0.279663,0.175488,135.479,-12.5664)">
            <path d="M51.005,67.717L99.561,164.829L2.45,164.829L51.005,67.717Z" style="fill:rgb(132,70,211);"/>
        </g>
        <g transform="matrix(1.1526,0,0,0.922081,-27.8051,-1.79349)">
            <path d="M102.208,19.912L167.278,150.053L37.138,150.053L102.208,19.912Z" style="fill:rgb(88,31,160);"/>
        </g>
    </g>
    <g transform="matrix(1,0,0,1,8.30593,15.7601)">
        <text x="68.428px" y="88.499px" style="font-family:'ArialMT', 'Arial', sans-serif;font-size:48px;fill:white;">3</text>
    </g>
</svg>
